<svg xmlns="http://www.w3.org/2000/svg" width="30" height="30" viewBox="0 0 30 30">
    <g fill="none" fill-rule="evenodd">
        <g fill="#FFA91A" fill-rule="nonzero">
            <g>
                <g>
                    <path d="M28.816 9.164c-.753-1.787-1.833-3.388-3.21-4.76-1.378-1.378-2.979-2.459-4.76-3.212-1.847-.783-3.81-1.18-5.833-1.18S11.027.41 9.18 1.193c-1.786.753-3.388 1.834-4.76 3.211-1.378 1.377-2.458 2.979-3.212 4.76C.426 11.01.03 12.974.03 14.997s.396 3.985 1.18 5.832c.753 1.786 1.833 3.387 3.21 4.76C5.798 26.966 7.4 28.046 9.18 28.8c1.847.783 3.81 1.18 5.833 1.18s3.986-.397 5.832-1.18c1.786-.753 3.387-1.833 4.76-3.21 1.378-1.378 2.458-2.98 3.211-4.761.784-1.847 1.18-3.81 1.18-5.832 0-2.023-.396-3.986-1.18-5.832zM.891 14.99c0-3.77 1.468-7.317 4.136-9.985C7.696 2.337 11.242.869 15.013.869c3.658 0 7.106 1.382 9.745 3.9l-5.329 5.329c-.073-.013-.142-.018-.22-.018-.99 0-1.756 1.063-2.087 2.325l-.822.822c-.37-.474-.835-.775-1.36-.775-1.335 0-2.264 1.937-2.264 3.676 0 .236.017.46.051.675l-.318.319c-.375-.306-.783-.49-1.205-.49-.108 0-.215.012-.323.038-1.132.271-1.618 1.902-1.46 3.435l-4.63 4.631c-2.518-2.638-3.9-6.082-3.9-9.745zm18.323-4.028c.624 0 1.381 1.29 1.381 2.793 0 1.218-.542 2.01-1.381 2.01-.84 0-1.382-.788-1.382-2.01 0-1.506.758-2.793 1.382-2.793zm-6.973 7.23c.387.47.697 1.098.848 1.727.15.628.13 1.179-.065 1.6-.163.358-.443.59-.809.677-.094.021-.19.034-.28.034-.697 0-1.282-.637-1.532-1.661-.353-1.464.086-2.893.689-3.04.039-.008.077-.012.116-.012.293-.004.68.25 1.033.676zm1.433-1.174c-.077-.263-.116-.56-.116-.891 0-1.507.762-2.794 1.382-2.794.624 0 1.381 1.292 1.381 2.794 0 1.218-.542 2.01-1.381 2.01-.56 0-.986-.349-1.21-.943l.052-.052c-.035-.043-.069-.081-.108-.124zM25 24.977c-2.669 2.669-6.216 4.136-9.986 4.136-3.555 0-6.908-1.304-9.512-3.684l4.183-4.184c.487 1.365 1.455 1.868 2.251 1.868.164 0 .328-.021.491-.06.624-.15 1.123-.564 1.403-1.162.28-.603.323-1.356.125-2.178-.116-.482-.314-.973-.572-1.42.404.469.96.723 1.57.723.646 0 1.227-.284 1.636-.805.413-.52.629-1.244.629-2.088 0-.68-.142-1.394-.396-2.01l.142-.142c.034.754.25 1.395.624 1.873.409.516.99.804 1.635.804.646 0 1.227-.284 1.636-.804.405-.521.62-1.24.62-2.088 0-1.192-.435-2.475-1.14-3.168l5.108-5.109c2.38 2.609 3.685 5.961 3.685 9.512.004 3.775-1.468 7.322-4.132 9.986z" transform="translate(-756 -624) translate(436 369) translate(320 255)"/>
                    <path d="M10.674 16.175c1.11 0 2.028-.882 2.398-2.298.21-.818.224-1.722.038-2.488-.219-.9-.684-1.48-1.308-1.644-.112-.03-.228-.043-.344-.043-.573 0-1.184.348-1.722.98-.473.56-.857 1.31-1.05 2.054-.211.818-.181 1.575.086 2.178.267.607.757 1.029 1.382 1.188.172.052.348.073.52.073zM9.538 12.96c.16-.62.478-1.24.87-1.7.357-.422.744-.672 1.045-.672.043 0 .086.005.125.017.284.074.538.448.672.999.15.616.137 1.386-.035 2.053-.262 1.007-.852 1.636-1.54 1.636-.1 0-.203-.013-.302-.04-.813-.214-1.14-1.11-.835-2.293z" transform="translate(-756 -624) translate(436 369) translate(320 255)"/>
                    <path d="M10.571 14.94c.198 0 .374-.134.426-.332l.83-3.198c.061-.236-.08-.477-.318-.538-.236-.06-.477.082-.538.319l-.83 3.198c-.06.237.081.478.318.538.035.008.073.013.112.013zM10.83 18.331l.77 3.211c.047.203.228.34.43.34.035 0 .069-.004.103-.013.237-.056.383-.297.328-.533l-.77-3.211c-.057-.237-.298-.383-.535-.327-.24.056-.387.297-.327.533zM14.944 17.798c.245 0 .443-.198.443-.444v-3.3c0-.246-.198-.444-.443-.444s-.443.198-.443.443v3.301c0 .246.198.444.443.444zM20.242 17.01c-.223-.138-.486-.207-.77-.207-1.016 0-2.311.913-3.077 2.17-.44.723-.629 1.455-.547 2.113.082.654.43 1.2.981 1.537.323.198.693.301 1.063.301.891 0 1.76-.581 2.376-1.593.904-1.489 1.115-3.628-.026-4.321zm-.731 3.86c-.452.745-1.042 1.172-1.619 1.172-.21 0-.417-.06-.602-.173-.719-.434-.77-1.39-.138-2.431.585-.965 1.627-1.748 2.32-1.748.12 0 .228.026.31.078.534.318.512 1.816-.271 3.103z" transform="translate(-756 -624) translate(436 369) translate(320 255)"/>
                    <path d="M19.64 18.004c-.207-.125-.482-.06-.607.147l-1.717 2.819c-.125.206-.06.482.146.607.073.043.15.064.228.064.15 0 .293-.077.379-.21l1.717-2.82c.13-.21.06-.482-.146-.607zM19.214 15.426c.245 0 .443-.198.443-.443V11.68c0-.245-.198-.443-.443-.443-.246 0-.444.198-.444.443v3.302c0 .245.198.443.444.443zM15.486 11.987c.1 0 .198-.009.293-.021.637-.09 1.175-.452 1.51-1.025.337-.572.453-1.317.337-2.156-.112-.796-.427-1.606-.857-2.23-.5-.714-1.106-1.11-1.709-1.11-.064 0-.125.004-.19.013-1.32.185-1.975 2.234-1.734 3.955.22 1.563 1.14 2.574 2.35 2.574zm-.495-5.651c.022-.005.043-.005.065-.005.297 0 .663.276.981.732.362.512.62 1.184.71 1.847.168 1.21-.258 2.066-1.088 2.182-.056.008-.117.013-.173.013-.753 0-1.321-.693-1.476-1.808-.207-1.494.366-2.875.981-2.961z" transform="translate(-756 -624) translate(436 369) translate(320 255)"/>
                    <path d="M15.112 10.382c.03.22.22.378.439.378.021 0 .043 0 .06-.004.241-.034.41-.258.375-.5l-.46-3.27c-.035-.241-.26-.41-.5-.375-.241.035-.41.258-.375.5l.46 3.27z" transform="translate(-756 -624) translate(436 369) translate(320 255)"/>
                </g>
            </g>
        </g>
    </g>
</svg>
