<svg xmlns="http://www.w3.org/2000/svg" width="30" height="30" viewBox="0 0 30 30">
    <g fill="none" fill-rule="evenodd">
        <g fill="#00B239" fill-rule="nonzero">
            <g>
                <path d="M28.82 264.161c-.755-1.788-1.836-3.391-3.215-4.766-1.38-1.379-2.982-2.46-4.766-3.214C18.99 255.396 17.025 255 15 255c-2.025 0-3.99.396-5.839 1.18-1.788.755-3.391 1.836-4.766 3.215-1.379 1.38-2.46 2.982-3.214 4.766C.396 266.01 0 267.975 0 270c0 2.025.396 3.99 1.18 5.839.755 1.788 1.836 3.391 3.215 4.766 1.38 1.379 2.982 2.46 4.766 3.214C11.01 284.604 12.975 285 15 285c2.025 0 3.99-.396 5.839-1.18 1.788-.755 3.391-1.836 4.766-3.215 1.379-1.38 2.46-2.982 3.214-4.766C29.604 273.99 30 272.025 30 270c0-2.025-.396-3.99-1.18-5.839zM.861 270c0-3.775 1.47-7.325 4.14-9.997 2.673-2.672 6.223-4.141 9.998-4.141 3.658 0 7.106 1.383 9.747 3.895l-6.468 6.473v-8.593c0-.245-.198-.444-.444-.444-.245 0-.443.199-.443.444v3.422c0 1.163-.845 2.133-1.952 2.327v-1.578c0-.245-.199-.443-.444-.443-.246 0-.444.198-.444.443v1.578c-1.108-.199-1.952-1.164-1.952-2.327v-3.422c0-.245-.198-.444-.444-.444s-.444.199-.444.444V272.78l-6.955 6.968C2.245 277.106.862 273.658.862 270zm14.582 3.55v-2.494c.763-.1 1.448-.461 1.952-.996v1.164c-.004 1.159-.845 2.128-1.952 2.327zm1.948-.103v1.164c0 1.163-.845 2.133-1.952 2.327v-2.495c.767-.095 1.447-.461 1.952-.996zm-1.948-3.288v-2.495c.763-.099 1.448-.46 1.952-.995v1.164c-.004 1.163-.845 2.133-1.952 2.326zm0-3.387v-2.494c.763-.1 1.448-.462 1.952-.996v1.164c-.004 1.159-.845 2.128-1.952 2.326zm-2.836 4.452v-1.164c.505.535 1.185.9 1.952.996v2.495c-1.111-.199-1.952-1.168-1.952-2.327zm1.948 3.219v2.495c-1.107-.199-1.952-1.164-1.952-2.327v-1.164c.509.535 1.19.9 1.952.996zm-1.948-6.61v-1.164c.505.534 1.185.9 1.952.995v2.495c-1.111-.193-1.952-1.163-1.952-2.326zm0-3.387v-1.164c.505.534 1.185.9 1.952.996v2.494c-1.111-.198-1.952-1.167-1.952-2.326zm12.39 15.551c-2.673 2.672-6.223 4.141-9.998 4.141-3.564 0-6.92-1.31-9.532-3.697l6.257-6.257v.427c0 1.65 1.237 3.016 2.835 3.223v4.537c0 .246.199.444.444.444.246 0 .444-.198.444-.444v-4.537c1.599-.203 2.836-1.573 2.836-3.223v-6.981l7.161-7.162c2.388 2.612 3.697 5.973 3.697 9.532-.004 3.775-1.473 7.325-4.145 9.997z" transform="translate(-436 -624) translate(436 369)"/>
            </g>
        </g>
    </g>
</svg>
