<svg xmlns="http://www.w3.org/2000/svg" width="30" height="30" viewBox="0 0 30 30">
    <g fill="none" fill-rule="evenodd">
        <g fill="#FF731A" fill-rule="nonzero">
            <g>
                <g>
                    <path d="M28.784 9.176c-.752-1.783-1.831-3.382-3.207-4.753-1.375-1.376-2.974-2.455-4.753-3.207C18.98.434 17.02.04 15 .04s-3.98.395-5.824 1.177c-1.783.752-3.382 1.831-4.753 3.207-1.376 1.375-2.455 2.974-3.207 4.753C.434 11.02.04 12.98.04 15s.395 3.98 1.177 5.824c.752 1.783 1.831 3.382 3.207 4.753 1.375 1.376 2.974 2.455 4.753 3.207 1.844.782 3.804 1.177 5.824 1.177s3.98-.395 5.824-1.177c1.783-.752 3.382-1.831 4.753-3.207 1.376-1.375 2.455-2.974 3.207-4.753.782-1.844 1.177-3.804 1.177-5.824s-.395-3.98-1.177-5.824zM.898 15c0-3.765 1.466-7.307 4.13-9.971C7.694 2.364 11.236.899 15 .899c3.68 0 7.143 1.4 9.787 3.95l-5.446 5.445V9.15c0-.245-.198-.442-.443-.442h-.705V7.242c0-.245-.197-.443-.442-.443h-1.324l-.413-3.137c-.03-.22-.215-.383-.438-.383H14.42c-.224 0-.409.164-.439.383l-.412 3.137h-1.32c-.245 0-.442.198-.442.443v1.466h-.705c-.245 0-.443.197-.443.442v9.821l-5.81 5.816C2.298 22.143.898 18.679.898 15zM16.04 7.69h1.268v1.022h-4.62V7.689H16.04zm-1.577-.886l.348-2.635h.382l.349 2.635h-1.08zm3.288 2.79h.705v15.05c0 .293-1.165.98-3.417.98h-.078c-2.256 0-3.417-.687-3.417-.98V9.595h6.207zm7.22 15.377c-2.664 2.665-6.206 4.13-9.971 4.13-3.52 0-6.847-1.28-9.443-3.627l5.102-5.102v4.273c0 .408.245.988 1.418 1.418.778.288 1.801.443 2.88.443h.077c1.083 0 2.106-.16 2.88-.443 1.173-.434 1.418-1.01 1.418-1.418v-12.95l6.134-6.133c2.342 2.596 3.627 5.918 3.627 9.442.009 3.761-1.457 7.303-4.122 9.967z" transform="translate(-756 -468) translate(436 369) translate(320 99)"/>
                    <path d="M12.043 10.448v13.006c0 .245.198.443.443.443s.442-.198.442-.443V10.448c0-.245-.197-.442-.442-.442s-.443.197-.443.442z" transform="translate(-756 -468) translate(436 369) translate(320 99)"/>
                </g>
            </g>
        </g>
    </g>
</svg>
