<svg xmlns="http://www.w3.org/2000/svg" width="30" height="30" viewBox="0 0 30 30">
    <g fill="none" fill-rule="evenodd">
        <g fill="#D07DBD" fill-rule="nonzero">
            <g>
                <g>
                    <path d="M28.812 9.155c-.753-1.786-1.834-3.387-3.21-4.76-1.378-1.378-2.98-2.458-4.761-3.211C18.994.4 17.03.004 15.009.004c-2.023 0-3.986.396-5.833 1.18-1.786.753-3.387 1.833-4.76 3.21-1.377 1.378-2.458 2.979-3.21 4.76-.784 1.847-1.18 3.81-1.18 5.833s.396 3.986 1.18 5.832c.752 1.786 1.833 3.388 3.21 4.76 1.377 1.378 2.979 2.458 4.76 3.212 1.847.783 3.81 1.179 5.833 1.179s3.985-.396 5.832-1.18c1.786-.753 3.387-1.833 4.76-3.21 1.377-1.378 2.458-2.979 3.211-4.76.783-1.847 1.18-3.81 1.18-5.833s-.4-3.986-1.18-5.832zM.887 14.987c0-3.77 1.467-7.317 4.136-9.986C7.692 2.333 11.238.865 15.009.865c3.688 0 7.162 1.408 9.809 3.964l-7.472 7.468-.104-.172V5.079h.25c.245 0 .443-.198.443-.443 0-.246-.198-.444-.443-.444h-4.976c-.245 0-.443.198-.443.444 0 .245.198.443.443.443h.25v7.046L7.49 21.086c-.262.409-.353.882-.267 1.334l-2.371 2.372C2.29 22.149.887 18.676.887 14.987zm7.308 7.567c-.172-.319-.16-.689.039-.99.004-.004.008-.013.008-.017l3.599-6.108h6.327l3.598 6.108c.004.004.009.013.009.017.198.301.21.676.038.99-.172.318-.49.508-.852.508H9.047c-.361-.005-.68-.194-.852-.508zm4.17-8.002l1.228-2.083c.038-.069.06-.146.06-.224V5.08h2.707v7.166c0 .078.022.155.06.224l1.227 2.083h-5.281zm12.625 10.42c-2.669 2.67-6.215 4.137-9.986 4.137-3.52 0-6.848-1.283-9.443-3.624l2.13-2.13c.345.374.827.589 1.356.589h11.914c.693 0 1.3-.362 1.632-.968.327-.603.3-1.309-.07-1.886l-4.656-7.91 7.64-7.64c2.34 2.595 3.624 5.922 3.624 9.443-.005 3.775-1.472 7.321-4.141 9.99z" transform="translate(-756 -676) translate(436 369) translate(320 307)"/>
                    <path d="M12.547 20.281c-.104 0-.224-.021-.375-.069-.146-.047-.245-.069-.288-.069-.095 0-.168.026-.224.078-.056.052-.082.12-.082.202 0 .116.086.22.258.306.173.086.38.129.625.129.318 0 .572-.086.766-.254.193-.168.292-.392.292-.663 0-.198-.06-.366-.18-.5-.12-.133-.31-.244-.573-.33-.03-.01-.073-.026-.129-.044-.241-.077-.362-.167-.362-.28 0-.068.026-.124.082-.167.056-.043.13-.065.22-.065.056 0 .137.017.25.048.111.03.189.047.236.047.086 0 .155-.022.207-.069.047-.047.073-.112.073-.194 0-.116-.069-.21-.211-.288-.142-.077-.319-.116-.534-.116-.292 0-.533.082-.714.24-.185.16-.276.371-.276.625 0 .198.056.353.172.47.112.115.315.219.599.3.198.06.327.117.387.168.06.052.09.12.09.207 0 .082-.03.146-.086.202-.064.06-.137.086-.223.086zM15.043 20.87c.4 0 .727-.133.973-.395.245-.267.37-.611.37-1.046 0-.43-.125-.78-.37-1.042-.246-.266-.573-.4-.973-.4s-.723.134-.968.4c-.246.267-.37.616-.37 1.046 0 .43.124.78.37 1.046.24.258.563.392.968.392zm-.486-2.065c.12-.155.28-.233.482-.233.202 0 .361.078.482.233.12.155.18.366.18.628 0 .254-.06.46-.18.611-.12.155-.28.229-.482.229-.198 0-.362-.078-.482-.229-.12-.154-.181-.357-.181-.61 0-.263.06-.474.18-.63zM17.001 21.108c-.025.03-.068.073-.116.129-.25.275-.379.452-.379.542 0 .099.03.168.09.215.061.048.156.073.28.073h1.102c.151 0 .259-.025.332-.073.073-.047.108-.12.108-.215s-.035-.168-.108-.215c-.073-.048-.185-.073-.332-.073h-.572c.383-.38.637-.667.762-.861.125-.194.185-.383.185-.56 0-.236-.082-.43-.245-.58-.164-.151-.375-.229-.633-.229-.146 0-.28.03-.405.09s-.232.147-.327.263c-.056.073-.103.155-.138.25-.034.094-.051.176-.051.254 0 .094.03.172.086.232.056.06.129.086.224.086.069 0 .125-.021.168-.064.043-.043.086-.125.133-.254.034-.09.077-.16.125-.211.051-.048.107-.073.168-.073.069 0 .124.025.168.073.043.047.064.112.064.19 0 .09-.047.201-.138.34-.09.145-.275.37-.55.67z" transform="translate(-756 -676) translate(436 369) translate(320 307)"/>
                </g>
            </g>
        </g>
    </g>
</svg>
