<?xml version="1.0" encoding="UTF-8"?>
<svg width="30px" height="30px" viewBox="0 0 30 30" version="1.1" xmlns="http://www.w3.org/2000/svg" xmlns:xlink="http://www.w3.org/1999/xlink">
    <title>9505DD0D-24A7-4E20-AF31-159BBBD89665</title>
    <defs>
        <circle id="path-1" cx="15" cy="15" r="15"></circle>
    </defs>
    <g id="modulos-desktop" stroke="none" stroke-width="1" fill="none" fill-rule="evenodd">
        <g id="iconografia-alergenos" transform="translate(-152.000000, -1141.000000)">
            <g id="Group-26" transform="translate(152.000000, 1141.000000)">
                <g id="Group-16">
                    <mask id="mask-2" fill="white">
                        <use xlink:href="#path-1"></use>
                    </mask>
                    <circle stroke="#00B239" stroke-width="0.8" cx="15" cy="15" r="14.6"></circle>
                    <line x1="17.646646" y1="12.3285638" x2="18.646646" y2="11.3285638" id="Line-2" stroke="#00B239" stroke-width="0.8" stroke-linecap="round" stroke-linejoin="round" mask="url(#mask-2)"></line>
                    <line x1="4.5" y1="25.5" x2="12.5" y2="17.5" id="Line-2" stroke="#00B239" stroke-width="0.8" stroke-linecap="round" stroke-linejoin="round" mask="url(#mask-2)"></line>
                    <line x1="24.5" y1="5.5" x2="25.5" y2="4.5" id="Line-2" stroke="#00B239" stroke-width="0.8" stroke-linecap="round" stroke-linejoin="round" mask="url(#mask-2)"></line>
                </g>
                <g id="Group-3" transform="translate(18.531199, 5.578111)" fill="#00B239">
                    <path d="M0.78125,9.76564224 L0.78125,8.82219553 C0.939179687,8.97715798 1.11785156,9.11028428 1.31480469,9.21618375 C1.94945313,9.55798396 2.34375,10.2175217 2.34375,10.9374896 L2.34375,11.6794109 C1.45332031,11.4980029 0.78125,10.7088546 0.78125,9.76564224 L0.78125,9.76564224 Z M2.34375,3.90624908 L2.34375,5.50771004 C2.15332031,5.31341126 1.93226563,5.14575338 1.68503906,5.01258801 C1.13601562,4.71735076 0.78125,4.07164132 0.78125,3.36757195 L0.78125,1.99244133 C1.67164063,2.17388842 2.34375,2.96299769 2.34375,3.90624908 L2.34375,3.90624908 Z M4.68746094,1.99244133 L4.68746094,3.36757195 C4.68746094,4.07164132 4.33269531,4.71738982 3.78347656,5.0127052 C3.53632812,5.14579244 3.31535156,5.31345033 3.125,5.50767097 L3.125,3.90624908 C3.125,2.96299769 3.79703125,2.17388842 4.68746094,1.99244133 L4.68746094,1.99244133 Z M3.125,11.6794109 L3.125,10.9374896 C3.125,10.2174826 3.51929687,9.55798396 4.15371094,9.21630094 C4.35074219,9.11028428 4.52949219,8.97711892 4.68746094,8.8221174 L4.68746094,9.76556412 C4.68746094,10.7088546 4.01535156,11.4980029 3.125,11.6794109 L3.125,11.6794109 Z M3.125,7.42186935 C3.125,6.70194045 3.51929687,6.04240276 4.15371094,5.70071973 C4.35074219,5.59474214 4.52949219,5.46157677 4.68746094,5.30657526 L4.68746094,6.88319222 C4.68746094,7.58726159 4.33269531,8.23304915 3.78347656,8.52832547 C3.53632812,8.66141271 3.31535156,8.8290706 3.125,9.02329124 L3.125,7.42186935 Z M0.78125,5.30657526 C0.939179687,5.46153771 1.11785156,5.59466401 1.31480469,5.70056348 C1.94945313,6.04236369 2.34375,6.70194045 2.34375,7.42186935 L2.34375,9.02333031 C2.15332031,8.82903153 1.93226563,8.66137365 1.68503906,8.52820828 C1.13601562,8.23301009 0.78125,7.58726159 0.78125,6.88319222 L0.78125,5.30657526 Z M2.734375,17.4218889 C2.95003906,17.4218889 3.125,17.2470044 3.125,17.0312601 C3.125,15.1476089 4.97261719,15.1624137 5.23738281,15.0442094 C5.434375,14.9562398 5.52273438,14.7252219 5.43476563,14.5282278 C5.35378906,14.3468979 5.15164063,14.2576392 4.96652344,14.3131476 C4.27246094,14.4375238 3.67269531,14.5840487 3.125,15.0901083 L3.125,12.4716843 C4.44824219,12.2814871 5.46871094,11.1406947 5.46871094,9.76568131 L5.46871094,0.390667878 C5.46871094,0.174962646 5.29378906,0 5.07808594,0 C4.86242188,0 4.68746094,0.174962646 4.68746094,0.390667878 L4.68746094,1.20028516 C4.07941406,1.28766882 3.53554688,1.57579664 3.125,1.99529292 L3.125,0.585943222 C3.125,0.370237991 2.95003906,0.195314407 2.734375,0.195314407 C2.51867188,0.195314407 2.34375,0.370237991 2.34375,0.585943222 L2.34375,1.9952148 C1.93320313,1.57571851 1.38933594,1.28762976 0.78125,1.20020703 L0.78125,0.390628815 C0.78125,0.174923583 0.606328125,0 0.390625,0 C0.174960937,0 0,0.174923583 0,0.390628815 L0,9.76564224 C0,11.1406947 1.02046875,12.2814871 2.34375,12.4716452 L2.34375,17.0312601 C2.34375,17.2470044 2.51863281,17.4218889 2.734375,17.4218889 L2.734375,17.4218889 Z" id="Fill-1"></path>
                </g>
                <path d="M13.0468984,20.6874872 L13.0468984,19.7440795 C13.2048281,19.8990029 13.3835,20.0321683 13.5804531,20.1380678 C14.2151016,20.479868 14.6093984,21.1394057 14.6093984,21.8593346 L14.6093984,22.6012949 C13.7189688,22.4198479 13.0468984,21.6306995 13.0468984,20.6874872 L13.0468984,20.6874872 Z M14.6093984,11.3124738 L14.6093984,12.9139347 C14.4189688,12.7196359 14.1979141,12.551978 13.9506875,12.4188127 C13.4016641,12.1236145 13.0468984,11.4779051 13.0468984,10.7738357 L13.0468984,9.398666 C13.9372891,9.58011309 14.6093984,10.3692614 14.6093984,11.3124738 L14.6093984,11.3124738 Z M16.9531094,9.398666 L16.9531094,10.7738357 C16.9531094,11.4779051 16.5983438,12.1236536 16.049125,12.4189299 C15.8019766,12.5520171 15.581,12.719675 15.3906094,12.9138956 L15.3906094,11.3124738 C15.3906094,10.3692614 16.0626797,9.58011309 16.9531094,9.398666 L16.9531094,9.398666 Z M15.3906094,22.6012949 L15.3906094,21.8593346 C15.3906094,21.1393666 15.7849453,20.479868 16.4193594,20.1381459 C16.6163906,20.0321683 16.7951406,19.8989639 16.9531094,19.7440014 L16.9531094,20.6874091 C16.9531094,21.6306995 16.281,22.4198479 15.3906094,22.6012949 L15.3906094,22.6012949 Z M16.049125,15.9345892 C15.8019766,16.0676374 15.581,16.2352953 15.3906094,16.4295159 L15.3906094,14.8281331 C15.3906094,14.1081651 15.7849453,13.4486274 16.4193594,13.1069053 C16.6163906,13.0009277 16.7951406,12.8677624 16.9531094,12.7127609 L16.9531094,14.2894169 C16.9531094,14.9935253 16.5983438,15.6392348 16.049125,15.9345892 L16.049125,15.9345892 Z M15.3906094,18.3437534 C15.3906094,17.6237854 15.7849453,16.9642868 16.4193594,16.6225256 C16.6163906,16.5165871 16.7951406,16.3833827 16.9531094,16.2284202 L16.9531094,17.8050372 C16.9531094,18.5090675 16.5983438,19.154855 16.049125,19.4501313 C15.8019766,19.5832186 15.581,19.7508765 15.3906094,19.9450971 L15.3906094,18.3437534 Z M13.0468984,12.7127999 C13.2048281,12.8677624 13.3835,13.0008887 13.5804531,13.1067882 C14.2151016,13.4485884 14.6093984,14.1081651 14.6093984,14.828094 L14.6093984,16.429555 C14.4189688,16.2352562 14.1979141,16.0675983 13.9506875,15.934472 C13.4016641,15.6392348 13.0468984,14.9935253 13.0468984,14.289456 L13.0468984,12.7127999 Z M13.0468984,16.2284593 C13.2048281,16.3833827 13.3835,16.516548 13.5804531,16.6224475 C14.2151016,16.9642477 14.6093984,17.6237854 14.6093984,18.3437143 L14.6093984,19.9451752 C14.4189688,19.7508765 14.1979141,19.5832186 13.9506875,19.4500532 C13.4016641,19.154855 13.0468984,18.5091065 13.0468984,17.8050762 L13.0468984,16.2284593 Z M15.0000234,26 C15.2156875,26 15.3906094,25.8250764 15.3906094,25.6093712 L15.3906094,23.3934902 C16.7138906,23.203293 17.7343594,22.0625397 17.7343594,20.6874872 L17.7343594,7.79685348 C17.7343594,7.58114825 17.5594375,7.40622467 17.3437344,7.40622467 C17.1280313,7.40622467 16.9531094,7.58114825 16.9531094,7.79685348 L16.9531094,8.60647077 C16.3450625,8.69385443 15.8011953,8.98198225 15.3906094,9.40147853 L15.3906094,6.39062881 C15.3906094,6.17492358 15.2156875,6 15.0000234,6 C14.7843203,6 14.6093984,6.17492358 14.6093984,6.39062881 L14.6093984,9.40143947 C14.1988516,8.98194318 13.6549844,8.69385443 13.0468984,8.60647077 L13.0468984,7.79685348 C13.0468984,7.58114825 12.8719766,7.40622467 12.6562734,7.40622467 C12.4405703,7.40622467 12.2656484,7.58114825 12.2656484,7.79685348 L12.2656484,20.6874872 C12.2656484,22.0625787 13.2861172,23.2033321 14.6093984,23.3934902 L14.6093984,25.6093712 C14.6093984,25.8250764 14.7842813,26 15.0000234,26 L15.0000234,26 Z" id="Fill-4" fill="#00B239"></path>
                <path d="M21.2655742,4.01563101 C21.4812773,4.01563101 21.6561992,4.19051553 21.6561992,4.40625983 C21.6561992,4.62196506 21.4812773,4.79688864 21.2655742,4.79688864 C21.049832,4.79688864 20.8749492,4.62196506 20.8749492,4.40625983 C20.8749492,4.19051553 21.049832,4.01563101 21.2655742,4.01563101" id="Fill-6" fill="#00B239"></path>
                <g id="Group-10" transform="translate(6.000102, 4.406264)" fill="#00B239">
                    <path d="M0.78125,10.9374896 L0.78125,9.99408197 C0.939179688,10.1490054 1.11785156,10.2821317 1.31480469,10.3880702 C1.94945313,10.7298313 2.34375,11.3894081 2.34375,12.109337 L2.34375,12.8512583 C1.45332031,12.6698503 0.78125,11.880702 0.78125,10.9374896 L0.78125,10.9374896 Z M2.34375,5.07809647 L2.34375,6.67955742 C2.15332031,6.48525865 1.93226563,6.31760076 1.68503906,6.18443539 C1.13601563,5.88919814 0.78125,5.24348871 0.78125,4.53941933 L0.78125,3.16428871 C1.67160156,3.3457358 2.34375,4.13484507 2.34375,5.07809647 L2.34375,5.07809647 Z M4.68746094,3.16428871 L4.68746094,4.53941933 C4.68746094,5.24348871 4.33269531,5.8892372 3.78347656,6.18455258 C3.53632813,6.31763982 3.31535156,6.48529771 3.125,6.67951835 L3.125,5.07809647 C3.125,4.13484507 3.79703125,3.3457358 4.68746094,3.16428871 L4.68746094,3.16428871 Z M3.125,12.8512583 L3.125,12.109337 C3.125,11.38933 3.51925781,10.7298313 4.15371094,10.3881483 C4.35074219,10.2821317 4.52949219,10.1489663 4.68746094,9.99400385 L4.68746094,10.9374115 C4.68746094,11.880702 4.01535156,12.6698503 3.125,12.8512583 L3.125,12.8512583 Z M3.125,8.59371674 C3.125,7.87378783 3.51925781,7.21425014 4.15371094,6.87256711 C4.35074219,6.76658952 4.52949219,6.63342415 4.68746094,6.47842264 L4.68746094,8.0550396 C4.68746094,8.75910898 4.33269531,9.40489653 3.78347656,9.70017285 C3.53632813,9.83326009 3.31535156,10.000918 3.125,10.1951386 L3.125,8.59371674 Z M0.78125,6.47842264 C0.939179688,6.63338509 1.11785156,6.76651139 1.31480469,6.87241086 C1.94945313,7.21421108 2.34375,7.87378783 2.34375,8.59371674 L2.34375,10.1951777 C2.15332031,10.0008789 1.93226563,9.83322103 1.68503906,9.70005566 C1.13601563,9.40485747 0.78125,8.75910898 0.78125,8.0550396 L0.78125,6.47842264 Z M2.34375,18.2031075 C2.34375,18.4188517 2.51867188,18.5937363 2.734375,18.5937363 C2.95003906,18.5937363 3.125,18.4188517 3.125,18.2031075 L3.125,13.6434926 C4.44824219,13.4532954 5.46871094,12.3125031 5.46871094,10.9374896 L5.46871094,1.5624762 C5.46871094,1.34677096 5.29378906,1.17184738 5.07808594,1.17184738 C4.86238281,1.17184738 4.68746094,1.34677096 4.68746094,1.5624762 L4.68746094,2.37209348 C4.079375,2.45947714 3.53550781,2.74760496 3.125,3.16710124 L3.125,0.390589752 C3.125,0.17488452 2.95003906,0 2.734375,0 C2.51867188,0 2.34375,0.17488452 2.34375,0.390589752 L2.34375,3.16706218 C1.93320313,2.74756589 1.38933594,2.45947714 0.78125,2.37205441 L0.78125,1.5624762 C0.78125,1.34677096 0.606328125,1.17184738 0.390625,1.17184738 C0.174921875,1.17184738 0,1.34677096 0,1.5624762 L0,10.9374896 C0,12.3125421 1.02046875,13.4533345 2.34375,13.6434926 L2.34375,18.2031075 Z" id="Fill-8"></path>
                </g>
            </g>
        </g>
    </g>
</svg>